<svg width="256" height="256" viewBox="0 0 256 256" fill="none" xmlns="http://www.w3.org/2000/svg">
  <rect width="256" height="256" fill="black"/>
  <g transform="translate(69, 71)">
    <path d="M85.165 0L117.565 0.05L98.045 110.51H65.675L68.075 96.24C59.205 108.05 45.365 114 30.755 112.79C14.655 111.45 2.60497 102.1 -0.285034 85.75C-0.885034 81.46 -0.415034 77.22 -0.565034 72.66L12.265 0L44.905 -0.02L34.365 59.68C33.795 64.1 33.495 68.2 34.275 72.42C36.125 82.47 46.005 84.24 54.685 82.85C66.265 81 71.995 71 73.895 60.25L84.555 0H85.165Z" fill="white"/>
  </g>
</svg>
