<svg width="1027" height="158" viewBox="0 0 1027 158" fill="none" xmlns="http://www.w3.org/2000/svg">
<path d="M1001.34 0L973.825 155L941.525 155.03L943.325 143.46C932.645 155.98 914.915 160.01 899.665 155.93C877.765 150.07 866.855 128.5 868.535 106.63C870.305 83.52 883.385 62.47 903.175 50.44C916.435 42.38 934.965 38.79 949.025 46.02C953.425 48.28 956.375 51.61 958.835 56.32L968.725 0.01H1001.34V0ZM948.035 109.26C951.505 102.24 952.605 94.71 951.225 87.33C949.765 79.54 943.925 73.92 936.065 72.76C916.205 69.82 900.395 87.84 901.445 106.68C901.905 114.83 906.975 121.49 914.705 123.8C927.865 127.73 941.855 121.8 948.035 109.27V109.26Z" fill="black"/>
<path d="M498.545 0L470.915 155.07L438.375 155.03L465.435 0H498.545Z" fill="black"/>
<path d="M828.535 115.579L858.045 122.919C844.415 146.199 815.145 161.979 788.065 156.259C770.805 152.619 757.695 139.819 753.605 122.669C751.145 112.349 751.775 101.899 755.055 91.6486C761.865 70.3586 778.415 53.2086 799.505 45.6386C810.615 41.6486 822.195 40.9486 833.485 43.8986C860.915 51.0786 873.485 79.1186 865.335 105.749H784.005C783.505 114.969 788.635 123.939 797.645 126.189C808.965 129.019 821.115 125.299 828.545 115.569L828.535 115.579ZM835.195 87.2086C833.765 78.4386 827.255 72.0086 818.545 70.7586C805.945 68.9486 794.655 75.8886 788.885 87.1986H835.195V87.2086Z" fill="black"/>
<path d="M85.165 44.54L117.565 44.59L98.045 155.05H65.675L68.075 140.78C59.205 152.59 45.365 158.54 30.755 157.33C14.655 155.99 2.60497 146.64 0.314966 130.29C-0.285034 126 0.184966 121.76 0.0349657 117.2L12.865 44.52L45.505 44.5L34.965 104.2C34.395 108.62 34.095 112.72 34.875 116.94C36.725 126.99 46.605 128.78 55.285 127.39C66.865 125.54 72.595 115.54 74.495 104.79L85.155 44.54H85.165Z" fill="black"/>
<path d="M420.045 44.5422L452.445 44.5922L432.925 155.052H400.555L402.955 140.782C394.815 151.602 382.455 157.602 369.015 157.472C353.135 157.312 339.585 149.552 335.835 133.612C334.355 127.332 334.505 121.312 335.335 114.752L347.755 44.4922L380.385 44.5322L369.845 104.202C369.285 108.622 368.985 112.722 369.755 116.942C371.605 126.992 381.485 128.782 390.165 127.392C401.745 125.542 407.475 115.542 409.375 104.792L420.035 44.5422H420.045Z" fill="black"/>
<path d="M647.455 44.5422L679.855 44.5922L660.335 155.052H627.965L630.365 140.782C622.225 151.602 609.865 157.602 596.425 157.472C580.545 157.312 566.995 149.552 563.245 133.612C561.765 127.332 561.905 121.312 562.745 114.752L575.165 44.4922L607.795 44.5322L597.255 104.202C596.695 108.622 596.395 112.722 597.165 116.942C599.015 126.992 608.885 128.782 617.575 127.392C629.155 125.542 634.885 115.542 636.785 104.792L647.445 44.5422H647.455Z" fill="black"/>
<path d="M189.696 81.7364C187.046 71.0564 174.546 70.3864 166.246 72.9864C156.626 76.0064 152.286 85.1764 150.376 94.5164L139.676 155.046L107.266 155.026L126.796 44.4964H159.126L156.936 58.3664C168.726 43.5864 188.376 38.1364 205.936 44.9564C215.176 48.5464 221.466 56.3664 223.686 65.9064C225.156 72.2364 224.976 78.2164 224.156 84.7864L211.736 155.036H179.326L190.046 94.3264C190.466 89.8764 190.716 85.8664 189.686 81.7164L189.696 81.7364Z" fill="black"/>
<path d="M275.145 125.001C286.705 126.871 297.285 121.261 303.415 111.551L332.715 120.481C324.175 135.911 310.855 147.471 294.705 153.611C284.635 157.251 274.385 158.481 263.925 156.521C245.975 153.171 232.235 140.061 228.155 122.251C225.785 111.931 226.485 101.491 229.805 91.291C239.625 61.051 270.665 37.891 302.985 42.851C320.765 45.771 334.955 58.521 339.435 75.971L307.595 85.531C305.145 77.851 298.825 72.771 290.805 72.271C282.745 71.641 275.355 74.701 269.605 80.351C262.275 88.001 258.545 98.461 259.605 108.981C260.805 117.401 266.505 123.661 275.145 124.991V125.001Z" fill="black"/>
<path d="M555.145 123.029L549.505 155.059L514.915 154.909C505.645 154.869 498.135 148.649 495.425 140.059C493.625 134.349 493.235 128.529 494.295 122.489L502.335 76.6391L489.075 76.5091L494.715 44.5291L508.005 44.5091L513.525 13.5391L546.135 13.5691L540.675 44.4991L569.045 44.5291L563.415 76.5291L534.985 76.5991L528.935 111.109C528.535 117.609 532.415 122.499 538.905 122.939L555.165 123.029H555.145Z" fill="black"/>
<path d="M712.935 95.9606L702.445 155.061L670.045 155.041L689.575 44.5506H721.935L718.865 62.6906C730.035 45.6006 746.705 39.8606 767.185 43.5706L756.865 75.5506C744.375 74.1006 728.885 72.5106 719.735 81.8506C716.315 85.8406 713.945 90.3606 712.945 95.9606H712.935Z" fill="black"/>
<path d="M1026.87 136.283C1025.85 148.893 1014.36 158.613 1002.05 157.743C992.885 157.093 986.655 149.623 987.375 140.583C988.315 128.713 998.435 119.033 1010.31 118.703C1020.33 118.423 1027.7 126.033 1026.87 136.283Z" fill="black"/>
</svg>
