<?xml version="1.0" encoding="UTF-8"?>
<svg id="_Шар_1" data-name="Шар 1" xmlns="http://www.w3.org/2000/svg" viewBox="0 0 1028.16 158.4">
  <defs>
    <style>
      .cls-1 {
        fill: #fff;
      }
    </style>
  </defs>
  <path class="cls-1" d="M465.86,0l-27.06,155.03,32.54.04L498.97,0h470.18l-9.89,56.31c-2.45-4.71-5.41-8.04-9.81-10.3-14.06-7.23-32.59-3.64-45.85,4.42-19.79,12.03-32.87,33.08-34.64,56.19-1.68,21.88,9.24,43.44,31.13,49.3,15.26,4.09,32.98.05,43.66-12.47l-1.8,11.57,32.3-.03L1001.77,0h26.39v158.4H0V0h465.86ZM555.57,123.03l-16.26-.09c-6.49-.44-10.37-5.33-9.97-11.83l6.05-34.51,28.43-.07,5.63-32-28.37-.03,5.46-30.93-32.61-.03-5.52,30.97-13.29.02-5.64,31.98,13.26.13-8.04,45.85c-1.06,6.04-.67,11.86,1.13,17.57,2.71,8.59,10.22,14.81,19.49,14.85l34.59.15,5.64-32.03ZM190.12,81.74c1.03,4.15.77,8.17.36,12.61l-10.72,60.7h32.41s12.42-70.24,12.42-70.24c.82-6.57,1.01-12.56-.47-18.88-2.22-9.54-8.51-17.36-17.75-20.95-17.56-6.82-37.22-1.37-49,13.41l2.19-13.88h-32.33s-19.53,110.54-19.53,110.54l32.41.02,10.7-60.53c1.91-9.34,6.25-18.51,15.87-21.53,8.29-2.6,20.8-1.94,23.45,8.75ZM275.57,125c-8.64-1.33-14.34-7.59-15.54-16.01-1.06-10.52,2.67-20.98,10-28.63,5.75-5.65,13.14-8.71,21.2-8.08,8.02.5,14.35,5.58,16.79,13.26l31.84-9.56c-4.49-17.45-18.68-30.2-36.45-33.12-32.32-4.96-63.36,18.2-73.18,48.44-3.31,10.2-4.01,20.64-1.65,30.96,4.08,17.8,17.83,30.92,35.77,34.27,10.46,1.95,20.71.72,30.78-2.91,16.15-6.15,29.47-17.7,38.01-33.13l-29.3-8.93c-6.12,9.71-16.71,15.32-28.27,13.45ZM828.96,115.58c-7.42,9.73-19.57,13.45-30.9,10.62-9.01-2.25-14.14-11.22-13.64-20.44h81.33c8.14-26.63-4.42-54.68-31.85-61.86-11.29-2.95-22.87-2.25-33.98,1.74-21.1,7.57-37.65,24.72-44.45,46.01-3.27,10.24-3.91,20.69-1.45,31.02,4.09,17.15,17.21,29.94,34.46,33.59,27.08,5.72,56.35-10.06,69.98-33.34l-29.51-7.34ZM713.36,95.96c.99-5.6,3.37-10.12,6.79-14.11,9.15-9.34,24.64-7.75,37.13-6.3l10.32-31.98c-20.48-3.71-37.15,2.02-48.32,19.12l3.07-18.14h-32.36s-19.53,110.5-19.53,110.5l32.4.02,10.49-59.1ZM85.59,44.54l-10.66,60.25c-1.9,10.76-7.64,20.75-19.21,22.6-8.68,1.39-18.56-.4-20.41-10.45-.78-4.23-.48-8.32.09-12.74l10.54-59.7-32.64.02L.46,117.2c.15,4.56-.33,8.8.28,13.09,2.3,16.35,14.35,25.7,30.44,27.04,14.61,1.22,28.45-4.73,37.32-16.55l-2.4,14.27h32.37s19.52-110.46,19.52-110.46l-32.4-.05ZM420.47,44.54l-10.66,60.25c-1.9,10.76-7.64,20.75-19.21,22.6-8.69,1.39-18.56-.4-20.41-10.45-.78-4.22-.48-8.32.09-12.74l10.54-59.67-32.63-.04-12.42,70.26c-.84,6.56-.98,12.58.5,18.86,3.75,15.94,17.3,23.7,33.18,23.86,13.44.14,25.8-5.87,33.94-16.69l-2.4,14.26h32.37s19.52-110.46,19.52-110.46l-32.4-.05ZM647.88,44.54l-10.66,60.25c-1.9,10.76-7.64,20.75-19.21,22.6-8.69,1.39-18.56-.4-20.41-10.45-.78-4.22-.48-8.32.09-12.74l10.54-59.67-32.63-.04-12.42,70.26c-.84,6.56-.98,12.58.5,18.86,3.75,15.94,17.3,23.7,33.18,23.86,13.44.14,25.8-5.87,33.94-16.69l-2.4,14.26h32.37s19.52-110.46,19.52-110.46l-32.4-.05ZM1027.3,136.28c.83-10.25-6.54-17.86-16.56-17.58-11.88.33-22,10.01-22.94,21.88-.72,9.04,5.52,16.52,14.68,17.16,12.31.87,23.8-8.85,24.82-21.46Z"/>
  <path d="M1001.77,0l-27.52,155-32.3.03,1.8-11.57c-10.68,12.52-28.41,16.55-43.66,12.47-21.9-5.86-32.81-27.43-31.13-49.3,1.77-23.11,14.85-44.16,34.64-56.19,13.26-8.06,31.79-11.65,45.85-4.42,4.4,2.26,7.35,5.59,9.81,10.3l9.89-56.31h32.62ZM948.46,109.26c3.47-7.02,4.57-14.55,3.19-21.93-1.46-7.79-7.3-13.41-15.16-14.57-19.86-2.94-35.67,15.08-34.62,33.92.46,8.15,5.53,14.81,13.26,17.12,13.16,3.93,27.15-2,33.33-14.53Z"/>
  <polygon points="498.97 0 471.34 155.07 438.8 155.03 465.86 0 498.97 0"/>
  <path d="M828.96,115.58l29.51,7.34c-13.63,23.28-42.9,39.06-69.98,33.34-17.26-3.64-30.37-16.44-34.46-33.59-2.46-10.32-1.83-20.77,1.45-31.02,6.81-21.29,23.36-38.44,44.45-46.01,11.11-3.99,22.69-4.69,33.98-1.74,27.43,7.18,40,35.22,31.85,61.85h-81.33c-.5,9.22,4.63,18.19,13.64,20.44,11.32,2.83,23.47-.89,30.9-10.62ZM835.62,87.21c-1.43-8.77-7.94-15.2-16.65-16.45-12.6-1.81-23.89,5.13-29.66,16.44h46.31Z"/>
  <path d="M85.59,44.54l32.4.05-19.52,110.46h-32.37s2.4-14.27,2.4-14.27c-8.87,11.81-22.71,17.76-37.32,16.55-16.1-1.34-28.15-10.69-30.44-27.04-.6-4.29-.13-8.53-.28-13.09L13.29,44.52l32.64-.02-10.54,59.7c-.57,4.42-.87,8.52-.09,12.74,1.85,10.05,11.73,11.84,20.41,10.45,11.58-1.85,17.31-11.85,19.21-22.6l10.66-60.25Z"/>
  <path d="M420.47,44.54l32.4.05-19.52,110.46h-32.37s2.4-14.27,2.4-14.27c-8.14,10.82-20.5,16.82-33.94,16.69-15.88-.16-29.43-7.92-33.18-23.86-1.48-6.28-1.33-12.3-.5-18.86l12.42-70.26,32.63.04-10.54,59.67c-.56,4.42-.86,8.52-.09,12.74,1.85,10.05,11.73,11.84,20.41,10.45,11.58-1.85,17.31-11.85,19.21-22.6l10.66-60.25Z"/>
  <path d="M647.88,44.54l32.4.05-19.52,110.46h-32.37s2.4-14.27,2.4-14.27c-8.14,10.82-20.5,16.82-33.94,16.69-15.88-.16-29.43-7.92-33.18-23.86-1.48-6.28-1.34-12.3-.5-18.86l12.42-70.26,32.63.04-10.54,59.67c-.56,4.42-.86,8.52-.09,12.74,1.85,10.05,11.72,11.84,20.41,10.45,11.58-1.85,17.31-11.85,19.21-22.6l10.66-60.25Z"/>
  <path d="M190.12,81.74c-2.65-10.68-15.15-11.35-23.45-8.75-9.62,3.02-13.96,12.19-15.87,21.53l-10.7,60.53-32.41-.02,19.53-110.53h32.33s-2.19,13.87-2.19,13.87c11.79-14.78,31.44-20.23,49-13.41,9.24,3.59,15.53,11.41,17.75,20.95,1.47,6.33,1.29,12.31.47,18.88l-12.42,70.25h-32.41s10.72-60.71,10.72-60.71c.42-4.45.67-8.46-.36-12.61Z"/>
  <path d="M275.57,125c11.56,1.87,22.14-3.74,28.27-13.45l29.3,8.93c-8.54,15.43-21.86,26.99-38.01,33.13-10.07,3.64-20.32,4.87-30.78,2.91-17.95-3.35-31.69-16.46-35.77-34.27-2.37-10.32-1.67-20.76,1.65-30.96,9.82-30.24,40.86-53.4,73.18-48.44,17.78,2.92,31.97,15.67,36.45,33.12l-31.84,9.56c-2.45-7.68-8.77-12.76-16.79-13.26-8.06-.63-15.45,2.43-21.2,8.08-7.33,7.65-11.06,18.11-10,28.63,1.2,8.42,6.9,14.68,15.54,16.01Z"/>
  <path d="M555.57,123.03l-5.64,32.03-34.59-.15c-9.27-.04-16.78-6.26-19.49-14.85-1.8-5.71-2.19-11.53-1.13-17.57l8.04-45.85-13.26-.13,5.64-31.98,13.29-.02,5.52-30.97,32.61.03-5.46,30.93,28.37.03-5.63,32-28.43.07-6.05,34.51c-.4,6.5,3.48,11.39,9.97,11.83l16.26.09Z"/>
  <path d="M713.36,95.96l-10.49,59.1-32.4-.02,19.53-110.49h32.36s-3.07,18.14-3.07,18.14c11.17-17.09,27.84-22.83,48.32-19.12l-10.32,31.98c-12.49-1.45-27.98-3.04-37.13,6.3-3.42,3.99-5.79,8.51-6.79,14.11Z"/>
  <path d="M1027.3,136.28c-1.02,12.61-12.51,22.33-24.82,21.46-9.17-.65-15.4-8.12-14.68-17.16.94-11.87,11.06-21.55,22.94-21.88,10.02-.28,17.39,7.33,16.56,17.58Z"/>
  <path class="cls-1" d="M948.46,109.26c-6.18,12.53-20.17,18.45-33.33,14.53-7.73-2.31-12.8-8.96-13.26-17.12-1.05-18.83,14.76-36.86,34.62-33.92,7.86,1.16,13.7,6.78,15.16,14.57,1.38,7.39.28,14.91-3.19,21.93Z"/>
  <path class="cls-1" d="M835.62,87.21h-46.31c5.77-11.32,17.06-18.27,29.66-16.45,8.71,1.25,15.23,7.68,16.65,16.45Z"/>
</svg>